<mxfile host="drawio-plugin" modified="2023-10-14T12:10:19.857Z" agent="5.0 (Windows NT 10.0; Win64; x64) AppleWebKit/537.36 (KHTML, like Gecko) Chrome/111.0.0.0 Safari/537.36" etag="KLZQndR7aXY-Gyghf4kc" version="20.5.3" type="embed"><diagram id="2QempQvXkUjVF1YWiOBT" name="Page-1"><mxGraphModel dx="1227" dy="463" grid="1" gridSize="10" guides="1" tooltips="1" connect="1" arrows="1" fold="1" page="1" pageScale="1" pageWidth="850" pageHeight="1100" math="0" shadow="0"><root><mxCell id="0"/><mxCell id="1" parent="0"/><mxCell id="2F5MSPOgXOu8C7vcqL_C-9" value="&lt;u&gt;&lt;i&gt;Desc Object&lt;/i&gt;&lt;/u&gt;" style="html=1;whiteSpace=wrap;fontFamily=Roboto;fontSource=https%3A%2F%2Ffonts.googleapis.com%2Fcss%3Ffamily%3DRoboto;" parent="1" vertex="1"><mxGeometry x="160" y="120" width="80" height="40" as="geometry"/></mxCell><mxCell id="2F5MSPOgXOu8C7vcqL_C-26" value="&lt;div&gt;Workout Daily&lt;/div&gt;&lt;div&gt;Schedule&lt;/div&gt;" style="html=1;whiteSpace=wrap;fontFamily=Roboto;fontSource=https%3A%2F%2Ffonts.googleapis.com%2Fcss%3Ffamily%3DRoboto;" parent="1" vertex="1"><mxGeometry x="80" y="200" width="80" height="40" as="geometry"/></mxCell><mxCell id="2F5MSPOgXOu8C7vcqL_C-27" value="&lt;div&gt;&lt;i&gt;&lt;u&gt;Workout&lt;/u&gt;&lt;/i&gt;&lt;/div&gt;" style="html=1;whiteSpace=wrap;fontFamily=Roboto;fontSource=https%3A%2F%2Ffonts.googleapis.com%2Fcss%3Ffamily%3DRoboto;" parent="1" vertex="1"><mxGeometry x="240" y="200" width="80" height="40" as="geometry"/></mxCell><mxCell id="2F5MSPOgXOu8C7vcqL_C-28" value="&lt;div&gt;Description&lt;/div&gt;" style="html=1;whiteSpace=wrap;fontFamily=Roboto;fontSource=https%3A%2F%2Ffonts.googleapis.com%2Fcss%3Ffamily%3DRoboto;" parent="1" vertex="1"><mxGeometry x="30" y="120" width="80" height="40" as="geometry"/></mxCell><mxCell id="JPtvz8hHEwOAzKOJtyuQ-131" style="edgeStyle=orthogonalEdgeStyle;rounded=0;orthogonalLoop=1;jettySize=auto;html=1;exitX=0.5;exitY=1;exitDx=0;exitDy=0;entryX=0.75;entryY=0;entryDx=0;entryDy=0;" parent="1" source="2F5MSPOgXOu8C7vcqL_C-29" target="3" edge="1"><mxGeometry relative="1" as="geometry"/></mxCell><mxCell id="JPtvz8hHEwOAzKOJtyuQ-132" value="req cardio traning" style="edgeLabel;html=1;align=center;verticalAlign=middle;resizable=0;points=[];" parent="JPtvz8hHEwOAzKOJtyuQ-131" vertex="1" connectable="0"><mxGeometry x="-0.0537" y="-2" relative="1" as="geometry"><mxPoint as="offset"/></mxGeometry></mxCell><mxCell id="JPtvz8hHEwOAzKOJtyuQ-133" value="*" style="edgeLabel;html=1;align=center;verticalAlign=middle;resizable=0;points=[];" parent="JPtvz8hHEwOAzKOJtyuQ-131" vertex="1" connectable="0"><mxGeometry x="-0.9623" y="-2" relative="1" as="geometry"><mxPoint x="5" as="offset"/></mxGeometry></mxCell><mxCell id="JPtvz8hHEwOAzKOJtyuQ-134" value="*" style="edgeLabel;html=1;align=center;verticalAlign=middle;resizable=0;points=[];" parent="JPtvz8hHEwOAzKOJtyuQ-131" vertex="1" connectable="0"><mxGeometry x="0.9058" y="-1" relative="1" as="geometry"><mxPoint x="4" as="offset"/></mxGeometry></mxCell><mxCell id="135" style="edgeStyle=orthogonalEdgeStyle;rounded=0;orthogonalLoop=1;jettySize=auto;html=1;exitX=0;exitY=0.5;exitDx=0;exitDy=0;entryX=1;entryY=0.5;entryDx=0;entryDy=0;endArrow=block;endFill=0;" edge="1" parent="1" source="2F5MSPOgXOu8C7vcqL_C-29" target="2F5MSPOgXOu8C7vcqL_C-27"><mxGeometry relative="1" as="geometry"/></mxCell><mxCell id="2F5MSPOgXOu8C7vcqL_C-29" value="&lt;div&gt;Workout Cardio training&lt;/div&gt;" style="html=1;whiteSpace=wrap;fontFamily=Roboto;fontSource=https%3A%2F%2Ffonts.googleapis.com%2Fcss%3Ffamily%3DRoboto;" parent="1" vertex="1"><mxGeometry x="360" y="110" width="80" height="40" as="geometry"/></mxCell><mxCell id="JPtvz8hHEwOAzKOJtyuQ-135" style="edgeStyle=orthogonalEdgeStyle;rounded=0;orthogonalLoop=1;jettySize=auto;html=1;exitX=0.5;exitY=1;exitDx=0;exitDy=0;" parent="1" source="2F5MSPOgXOu8C7vcqL_C-30" edge="1"><mxGeometry relative="1" as="geometry"><mxPoint x="400.2105263157896" y="280.1578947368422" as="targetPoint"/></mxGeometry></mxCell><mxCell id="JPtvz8hHEwOAzKOJtyuQ-136" style="edgeStyle=orthogonalEdgeStyle;rounded=0;orthogonalLoop=1;jettySize=auto;html=1;exitX=0.75;exitY=1;exitDx=0;exitDy=0;entryX=0.75;entryY=0;entryDx=0;entryDy=0;" parent="1" source="2F5MSPOgXOu8C7vcqL_C-30" target="124" edge="1"><mxGeometry relative="1" as="geometry"><Array as="points"><mxPoint x="420" y="320"/><mxPoint x="700" y="320"/></Array></mxGeometry></mxCell><mxCell id="JPtvz8hHEwOAzKOJtyuQ-137" value="*" style="edgeLabel;html=1;align=center;verticalAlign=middle;resizable=0;points=[];" parent="JPtvz8hHEwOAzKOJtyuQ-136" vertex="1" connectable="0"><mxGeometry x="-0.9622" y="2" relative="1" as="geometry"><mxPoint x="3" as="offset"/></mxGeometry></mxCell><mxCell id="JPtvz8hHEwOAzKOJtyuQ-138" value="*" style="edgeLabel;html=1;align=center;verticalAlign=middle;resizable=0;points=[];" parent="JPtvz8hHEwOAzKOJtyuQ-136" vertex="1" connectable="0"><mxGeometry x="0.9426" y="2" relative="1" as="geometry"><mxPoint x="3" as="offset"/></mxGeometry></mxCell><mxCell id="JPtvz8hHEwOAzKOJtyuQ-139" value="add weight equipment" style="edgeLabel;html=1;align=center;verticalAlign=middle;resizable=0;points=[];" parent="JPtvz8hHEwOAzKOJtyuQ-136" vertex="1" connectable="0"><mxGeometry x="-0.1557" y="-1" relative="1" as="geometry"><mxPoint as="offset"/></mxGeometry></mxCell><mxCell id="136" style="edgeStyle=orthogonalEdgeStyle;rounded=0;orthogonalLoop=1;jettySize=auto;html=1;exitX=0;exitY=0.5;exitDx=0;exitDy=0;entryX=1;entryY=0.5;entryDx=0;entryDy=0;endArrow=block;endFill=0;" edge="1" parent="1" source="2F5MSPOgXOu8C7vcqL_C-30" target="2F5MSPOgXOu8C7vcqL_C-27"><mxGeometry relative="1" as="geometry"/></mxCell><mxCell id="2F5MSPOgXOu8C7vcqL_C-30" value="&lt;div&gt;Workout Weight training&lt;/div&gt;" style="html=1;whiteSpace=wrap;fontFamily=Roboto;fontSource=https%3A%2F%2Ffonts.googleapis.com%2Fcss%3Ffamily%3DRoboto;" parent="1" vertex="1"><mxGeometry x="360" y="230" width="80" height="50" as="geometry"/></mxCell><mxCell id="2F5MSPOgXOu8C7vcqL_C-31" value="Workout Set" style="html=1;whiteSpace=wrap;fontFamily=Roboto;fontSource=https%3A%2F%2Ffonts.googleapis.com%2Fcss%3Ffamily%3DRoboto;" parent="1" vertex="1"><mxGeometry x="540" y="240" width="80" height="40" as="geometry"/></mxCell><mxCell id="2F5MSPOgXOu8C7vcqL_C-32" value="Repetition" style="html=1;whiteSpace=wrap;fontFamily=Roboto;fontSource=https%3A%2F%2Ffonts.googleapis.com%2Fcss%3Ffamily%3DRoboto;" parent="1" vertex="1"><mxGeometry x="660" y="240" width="80" height="40" as="geometry"/></mxCell><mxCell id="2F5MSPOgXOu8C7vcqL_C-33" value="Duration" style="html=1;whiteSpace=wrap;fontFamily=Roboto;fontSource=https%3A%2F%2Ffonts.googleapis.com%2Fcss%3Ffamily%3DRoboto;" parent="1" vertex="1"><mxGeometry x="527.5" y="110" width="80" height="40" as="geometry"/></mxCell><mxCell id="2F5MSPOgXOu8C7vcqL_C-34" value="&lt;u&gt;&lt;i&gt;Requirement&lt;/i&gt;&lt;/u&gt;" style="html=1;whiteSpace=wrap;fontFamily=Roboto;fontSource=https%3A%2F%2Ffonts.googleapis.com%2Fcss%3Ffamily%3DRoboto;" parent="1" vertex="1"><mxGeometry x="360" y="360" width="80" height="40" as="geometry"/></mxCell><mxCell id="119" style="edgeStyle=orthogonalEdgeStyle;rounded=0;orthogonalLoop=1;jettySize=auto;html=1;exitX=1;exitY=1;exitDx=0;exitDy=0;entryX=0.5;entryY=1;entryDx=0;entryDy=0;endArrow=block;endFill=0;startSize=16;endSize=11;" parent="1" source="137" target="102" edge="1"><mxGeometry relative="1" as="geometry"><Array as="points"><mxPoint x="270" y="650"/><mxPoint x="290" y="650"/><mxPoint x="290" y="680"/><mxPoint x="330" y="680"/><mxPoint x="330" y="570"/><mxPoint x="790" y="570"/></Array></mxGeometry></mxCell><mxCell id="142" style="edgeStyle=orthogonalEdgeStyle;rounded=0;orthogonalLoop=1;jettySize=auto;html=1;exitX=0.5;exitY=0;exitDx=0;exitDy=0;entryX=0.5;entryY=1;entryDx=0;entryDy=0;endArrow=block;endFill=0;endSize=13;" edge="1" parent="1" source="2F5MSPOgXOu8C7vcqL_C-35" target="137"><mxGeometry relative="1" as="geometry"/></mxCell><mxCell id="2F5MSPOgXOu8C7vcqL_C-35" value="&lt;div&gt;Facility&lt;/div&gt;" style="html=1;whiteSpace=wrap;fontFamily=Roboto;fontSource=https%3A%2F%2Ffonts.googleapis.com%2Fcss%3Ffamily%3DRoboto;" parent="1" vertex="1"><mxGeometry x="150" y="750" width="80" height="40" as="geometry"/></mxCell><mxCell id="108" style="edgeStyle=orthogonalEdgeStyle;html=1;exitX=1;exitY=0.5;exitDx=0;exitDy=0;entryX=0.5;entryY=1;entryDx=0;entryDy=0;endArrow=block;endFill=0;endSize=11;rounded=0;" parent="1" source="2F5MSPOgXOu8C7vcqL_C-36" target="102" edge="1"><mxGeometry relative="1" as="geometry"/></mxCell><mxCell id="2F5MSPOgXOu8C7vcqL_C-36" value="&lt;i&gt;&lt;u&gt;Equipment&lt;/u&gt;&lt;/i&gt;" style="html=1;whiteSpace=wrap;fontFamily=Roboto;fontSource=https%3A%2F%2Ffonts.googleapis.com%2Fcss%3Ffamily%3DRoboto;" parent="1" vertex="1"><mxGeometry x="620" y="610" width="80" height="40" as="geometry"/></mxCell><mxCell id="2F5MSPOgXOu8C7vcqL_C-38" value="&lt;i&gt;&lt;u&gt;Machine&lt;/u&gt;&lt;/i&gt;" style="html=1;whiteSpace=wrap;fontFamily=Roboto;fontSource=https%3A%2F%2Ffonts.googleapis.com%2Fcss%3Ffamily%3DRoboto;" parent="1" vertex="1"><mxGeometry x="540" y="690" width="80" height="40" as="geometry"/></mxCell><mxCell id="127" style="rounded=0;orthogonalLoop=1;jettySize=auto;html=1;exitX=0.5;exitY=1;exitDx=0;exitDy=0;entryX=0.5;entryY=0;entryDx=0;entryDy=0;endArrow=block;endFill=0;endSize=15;" parent="1" source="2F5MSPOgXOu8C7vcqL_C-39" target="126" edge="1"><mxGeometry relative="1" as="geometry"/></mxCell><mxCell id="2F5MSPOgXOu8C7vcqL_C-39" value="Item" style="html=1;whiteSpace=wrap;fontFamily=Roboto;fontSource=https%3A%2F%2Ffonts.googleapis.com%2Fcss%3Ffamily%3DRoboto;" parent="1" vertex="1"><mxGeometry x="700" y="690" width="80" height="40" as="geometry"/></mxCell><mxCell id="2F5MSPOgXOu8C7vcqL_C-40" value="Weight" style="html=1;whiteSpace=wrap;fontFamily=Roboto;fontSource=https%3A%2F%2Ffonts.googleapis.com%2Fcss%3Ffamily%3DRoboto;" parent="1" vertex="1"><mxGeometry x="890" y="690" width="80" height="40" as="geometry"/></mxCell><mxCell id="25" style="edgeStyle=elbowEdgeStyle;html=1;exitX=1;exitY=0.5;exitDx=0;exitDy=0;entryX=0;entryY=0.5;entryDx=0;entryDy=0;startArrow=none;startFill=0;endArrow=blockThin;endFill=1;rounded=0;" parent="1" source="2F5MSPOgXOu8C7vcqL_C-43" target="2F5MSPOgXOu8C7vcqL_C-36" edge="1"><mxGeometry relative="1" as="geometry"><Array as="points"><mxPoint x="440" y="710"/></Array></mxGeometry></mxCell><mxCell id="26" value="owns" style="edgeLabel;html=1;align=center;verticalAlign=middle;resizable=0;points=[];" parent="25" vertex="1" connectable="0"><mxGeometry x="-0.2462" y="-1" relative="1" as="geometry"><mxPoint as="offset"/></mxGeometry></mxCell><mxCell id="36" value="+" style="edgeLabel;html=1;align=center;verticalAlign=middle;resizable=0;points=[];labelBackgroundColor=none;" parent="25" vertex="1" connectable="0"><mxGeometry x="-0.9696" relative="1" as="geometry"><mxPoint x="327" y="-143" as="offset"/></mxGeometry></mxCell><mxCell id="143" value="!" style="edgeLabel;html=1;align=center;verticalAlign=middle;resizable=0;points=[];" vertex="1" connectable="0" parent="25"><mxGeometry x="-0.9431" relative="1" as="geometry"><mxPoint y="9" as="offset"/></mxGeometry></mxCell><mxCell id="144" style="edgeStyle=orthogonalEdgeStyle;rounded=0;orthogonalLoop=1;jettySize=auto;html=1;exitX=0.5;exitY=0;exitDx=0;exitDy=0;entryX=0.5;entryY=1;entryDx=0;entryDy=0;endArrow=block;endFill=0;endSize=13;" edge="1" parent="1" source="2F5MSPOgXOu8C7vcqL_C-43" target="137"><mxGeometry relative="1" as="geometry"/></mxCell><mxCell id="2F5MSPOgXOu8C7vcqL_C-43" value="&lt;div&gt;Gym&lt;/div&gt;" style="html=1;whiteSpace=wrap;fontFamily=Roboto;fontSource=https%3A%2F%2Ffonts.googleapis.com%2Fcss%3Ffamily%3DRoboto;" parent="1" vertex="1"><mxGeometry x="280" y="750" width="80" height="40" as="geometry"/></mxCell><mxCell id="2F5MSPOgXOu8C7vcqL_C-44" value="Fitness Center" style="html=1;whiteSpace=wrap;fontFamily=Roboto;fontSource=https%3A%2F%2Ffonts.googleapis.com%2Fcss%3Ffamily%3DRoboto;" parent="1" vertex="1"><mxGeometry x="70" y="590" width="80" height="40" as="geometry"/></mxCell><mxCell id="2F5MSPOgXOu8C7vcqL_C-46" value="" style="endArrow=block;endSize=16;endFill=0;html=1;rounded=0;entryX=0.5;entryY=1;entryDx=0;entryDy=0;fontFamily=Roboto;fontSource=https%3A%2F%2Ffonts.googleapis.com%2Fcss%3Ffamily%3DRoboto;" parent="1" target="2F5MSPOgXOu8C7vcqL_C-9" edge="1"><mxGeometry width="160" relative="1" as="geometry"><mxPoint x="200" y="190" as="sourcePoint"/><mxPoint x="198.98" y="160" as="targetPoint"/><Array as="points"/></mxGeometry></mxCell><mxCell id="2F5MSPOgXOu8C7vcqL_C-53" value="" style="endArrow=none;html=1;edgeStyle=orthogonalEdgeStyle;rounded=0;fontFamily=Roboto;fontSource=https%3A%2F%2Ffonts.googleapis.com%2Fcss%3Ffamily%3DRoboto;" parent="1" edge="1"><mxGeometry relative="1" as="geometry"><mxPoint x="120" y="190" as="sourcePoint"/><mxPoint x="280" y="190" as="targetPoint"/></mxGeometry></mxCell><mxCell id="2F5MSPOgXOu8C7vcqL_C-55" value="" style="endArrow=none;html=1;edgeStyle=orthogonalEdgeStyle;rounded=0;exitX=0.5;exitY=0;exitDx=0;exitDy=0;fontFamily=Roboto;fontSource=https%3A%2F%2Ffonts.googleapis.com%2Fcss%3Ffamily%3DRoboto;" parent="1" source="2F5MSPOgXOu8C7vcqL_C-26" edge="1"><mxGeometry relative="1" as="geometry"><mxPoint x="130" y="200" as="sourcePoint"/><mxPoint x="120" y="190" as="targetPoint"/></mxGeometry></mxCell><mxCell id="2F5MSPOgXOu8C7vcqL_C-56" value="" style="endArrow=none;html=1;edgeStyle=orthogonalEdgeStyle;rounded=0;fontFamily=Roboto;fontSource=https%3A%2F%2Ffonts.googleapis.com%2Fcss%3Ffamily%3DRoboto;" parent="1" edge="1"><mxGeometry relative="1" as="geometry"><mxPoint x="280" y="200" as="sourcePoint"/><mxPoint x="279.65" y="200" as="targetPoint"/><Array as="points"><mxPoint x="279.65" y="190"/><mxPoint x="279.65" y="190"/></Array></mxGeometry></mxCell><mxCell id="2F5MSPOgXOu8C7vcqL_C-63" value="" style="endArrow=blockThin;html=1;edgeStyle=orthogonalEdgeStyle;rounded=0;fontFamily=Roboto;fontSource=https%3A%2F%2Ffonts.googleapis.com%2Fcss%3Ffamily%3DRoboto;endFill=1;entryX=0;entryY=0.5;entryDx=0;entryDy=0;exitX=1;exitY=0.5;exitDx=0;exitDy=0;" parent="1" target="2F5MSPOgXOu8C7vcqL_C-33" edge="1" source="2F5MSPOgXOu8C7vcqL_C-29"><mxGeometry relative="1" as="geometry"><mxPoint x="440" y="180" as="sourcePoint"/><mxPoint x="480" y="180" as="targetPoint"/></mxGeometry></mxCell><mxCell id="2F5MSPOgXOu8C7vcqL_C-89" value="!" style="edgeLabel;html=1;align=center;verticalAlign=middle;resizable=0;points=[];rotation=0;fontFamily=Roboto;fontSource=https%3A%2F%2Ffonts.googleapis.com%2Fcss%3Ffamily%3DRoboto;labelBackgroundColor=none;" parent="2F5MSPOgXOu8C7vcqL_C-63" vertex="1" connectable="0"><mxGeometry x="0.5259" relative="1" as="geometry"><mxPoint x="5" y="-8" as="offset"/></mxGeometry></mxCell><mxCell id="2F5MSPOgXOu8C7vcqL_C-111" value="lasts" style="edgeLabel;html=1;align=center;verticalAlign=middle;resizable=0;points=[];fontSize=6;fontFamily=Roboto;fontSource=https%3A%2F%2Ffonts.googleapis.com%2Fcss%3Ffamily%3DRoboto;" parent="2F5MSPOgXOu8C7vcqL_C-63" vertex="1" connectable="0"><mxGeometry x="-0.079" y="-1" relative="1" as="geometry"><mxPoint y="4" as="offset"/></mxGeometry></mxCell><mxCell id="91" value="*" style="edgeLabel;html=1;align=center;verticalAlign=middle;resizable=0;points=[];labelBackgroundColor=none;" parent="2F5MSPOgXOu8C7vcqL_C-63" vertex="1" connectable="0"><mxGeometry x="-0.736" y="-1" relative="1" as="geometry"><mxPoint y="-7" as="offset"/></mxGeometry></mxCell><mxCell id="2F5MSPOgXOu8C7vcqL_C-64" value="" style="endArrow=blockThin;html=1;edgeStyle=orthogonalEdgeStyle;rounded=0;fontFamily=Roboto;fontSource=https%3A%2F%2Ffonts.googleapis.com%2Fcss%3Ffamily%3DRoboto;endFill=1;entryX=0;entryY=0.5;entryDx=0;entryDy=0;" parent="1" edge="1" target="2F5MSPOgXOu8C7vcqL_C-31"><mxGeometry relative="1" as="geometry"><mxPoint x="440" y="269.9" as="sourcePoint"/><mxPoint x="480" y="260" as="targetPoint"/><Array as="points"><mxPoint x="440" y="260"/></Array></mxGeometry></mxCell><mxCell id="2F5MSPOgXOu8C7vcqL_C-96" value="*" style="edgeLabel;html=1;align=center;verticalAlign=middle;resizable=0;points=[];fontFamily=Roboto;fontSource=https%3A%2F%2Ffonts.googleapis.com%2Fcss%3Ffamily%3DRoboto;fontSize=10;" parent="2F5MSPOgXOu8C7vcqL_C-64" vertex="1" connectable="0"><mxGeometry x="-0.5216" relative="1" as="geometry"><mxPoint x="1" y="-8" as="offset"/></mxGeometry></mxCell><mxCell id="2F5MSPOgXOu8C7vcqL_C-97" value="!" style="edgeLabel;html=1;align=center;verticalAlign=middle;resizable=0;points=[];rotation=0;fontFamily=Roboto;fontSource=https%3A%2F%2Ffonts.googleapis.com%2Fcss%3Ffamily%3DRoboto;labelBackgroundColor=none;" parent="2F5MSPOgXOu8C7vcqL_C-64" vertex="1" connectable="0"><mxGeometry x="0.4515" relative="1" as="geometry"><mxPoint x="24" y="-8" as="offset"/></mxGeometry></mxCell><mxCell id="2F5MSPOgXOu8C7vcqL_C-112" value="number of" style="edgeLabel;html=1;align=center;verticalAlign=middle;resizable=0;points=[];fontFamily=Roboto;fontSource=https%3A%2F%2Ffonts.googleapis.com%2Fcss%3Ffamily%3DRoboto;" parent="2F5MSPOgXOu8C7vcqL_C-64" vertex="1" connectable="0"><mxGeometry x="0.027" y="-1" relative="1" as="geometry"><mxPoint x="-1" y="6" as="offset"/></mxGeometry></mxCell><mxCell id="2F5MSPOgXOu8C7vcqL_C-65" value="" style="endArrow=blockThin;html=1;edgeStyle=orthogonalEdgeStyle;rounded=0;fontFamily=Roboto;fontSource=https%3A%2F%2Ffonts.googleapis.com%2Fcss%3Ffamily%3DRoboto;endFill=1;startArrow=none;startFill=0;exitX=1;exitY=0.5;exitDx=0;exitDy=0;entryX=0;entryY=0.5;entryDx=0;entryDy=0;" parent="1" source="2F5MSPOgXOu8C7vcqL_C-31" target="2F5MSPOgXOu8C7vcqL_C-32" edge="1"><mxGeometry relative="1" as="geometry"><mxPoint x="650" y="200" as="sourcePoint"/><mxPoint x="690" y="200" as="targetPoint"/><Array as="points"><mxPoint x="640" y="260"/><mxPoint x="640" y="260"/></Array></mxGeometry></mxCell><mxCell id="2F5MSPOgXOu8C7vcqL_C-98" value="*" style="edgeLabel;html=1;align=center;verticalAlign=middle;resizable=0;points=[];fontFamily=Roboto;fontSource=https%3A%2F%2Ffonts.googleapis.com%2Fcss%3Ffamily%3DRoboto;labelBackgroundColor=none;" parent="2F5MSPOgXOu8C7vcqL_C-65" vertex="1" connectable="0"><mxGeometry x="-0.5311" y="1" relative="1" as="geometry"><mxPoint x="-6" y="-7" as="offset"/></mxGeometry></mxCell><mxCell id="2F5MSPOgXOu8C7vcqL_C-99" value="!" style="edgeLabel;html=1;align=center;verticalAlign=middle;resizable=0;points=[];rotation=0;fontFamily=Roboto;fontSource=https%3A%2F%2Ffonts.googleapis.com%2Fcss%3Ffamily%3DRoboto;labelBackgroundColor=none;" parent="2F5MSPOgXOu8C7vcqL_C-65" vertex="1" connectable="0"><mxGeometry x="0.5755" y="-1" relative="1" as="geometry"><mxPoint x="5" y="-9" as="offset"/></mxGeometry></mxCell><mxCell id="2F5MSPOgXOu8C7vcqL_C-113" value="&lt;font style=&quot;font-size: 6px;&quot;&gt;multiply by&lt;/font&gt;" style="edgeLabel;html=1;align=center;verticalAlign=middle;resizable=0;points=[];fontFamily=Roboto;fontSource=https%3A%2F%2Ffonts.googleapis.com%2Fcss%3Ffamily%3DRoboto;" parent="2F5MSPOgXOu8C7vcqL_C-65" vertex="1" connectable="0"><mxGeometry x="-0.0303" y="-1" relative="1" as="geometry"><mxPoint y="6" as="offset"/></mxGeometry></mxCell><mxCell id="2F5MSPOgXOu8C7vcqL_C-67" value="" style="endArrow=none;html=1;edgeStyle=orthogonalEdgeStyle;rounded=0;exitX=0.5;exitY=0;exitDx=0;exitDy=0;fontFamily=Roboto;fontSource=https%3A%2F%2Ffonts.googleapis.com%2Fcss%3Ffamily%3DRoboto;" parent="1" edge="1"><mxGeometry relative="1" as="geometry"><mxPoint x="319.83000000000004" y="440" as="sourcePoint"/><mxPoint x="320" y="440" as="targetPoint"/></mxGeometry></mxCell><mxCell id="2F5MSPOgXOu8C7vcqL_C-70" value="" style="endArrow=block;html=1;edgeStyle=orthogonalEdgeStyle;rounded=0;startArrow=none;startFill=0;endFill=1;fontFamily=Roboto;fontSource=https%3A%2F%2Ffonts.googleapis.com%2Fcss%3Ffamily%3DRoboto;entryX=0.25;entryY=0;entryDx=0;entryDy=0;exitX=0.5;exitY=1;exitDx=0;exitDy=0;" parent="1" source="2F5MSPOgXOu8C7vcqL_C-27" target="2" edge="1"><mxGeometry relative="1" as="geometry"><mxPoint x="280" y="230" as="sourcePoint"/><mxPoint x="300" y="470" as="targetPoint"/><Array as="points"><mxPoint x="280" y="470"/><mxPoint x="265" y="470"/></Array></mxGeometry></mxCell><mxCell id="sfomzFhaXuzBr-5Kidbq-1" value="add req facility" style="edgeLabel;html=1;align=center;verticalAlign=middle;resizable=0;points=[];fontSize=9;" parent="2F5MSPOgXOu8C7vcqL_C-70" connectable="0" vertex="1"><mxGeometry x="0.1417" y="1" relative="1" as="geometry"><mxPoint y="-7" as="offset"/></mxGeometry></mxCell><mxCell id="KLTFEX1qhUFmZQi5NeGx-10" value="&lt;font color=&quot;#ff6666&quot;&gt;*&lt;/font&gt;" style="edgeLabel;html=1;align=center;verticalAlign=middle;resizable=0;points=[];" parent="2F5MSPOgXOu8C7vcqL_C-70" connectable="0" vertex="1"><mxGeometry x="0.8845" y="2" relative="1" as="geometry"><mxPoint x="5" y="4" as="offset"/></mxGeometry></mxCell><mxCell id="88" value="*" style="edgeLabel;html=1;align=center;verticalAlign=middle;resizable=0;points=[];" parent="2F5MSPOgXOu8C7vcqL_C-70" vertex="1" connectable="0"><mxGeometry x="-0.9417" y="-1" relative="1" as="geometry"><mxPoint x="6" as="offset"/></mxGeometry></mxCell><mxCell id="2F5MSPOgXOu8C7vcqL_C-72" value="" style="endArrow=blockThin;html=1;edgeStyle=orthogonalEdgeStyle;rounded=0;exitX=0.5;exitY=1;exitDx=0;exitDy=0;fontFamily=Roboto;fontSource=https%3A%2F%2Ffonts.googleapis.com%2Fcss%3Ffamily%3DRoboto;startArrow=none;startFill=0;endFill=1;" parent="1" source="2F5MSPOgXOu8C7vcqL_C-44" edge="1"><mxGeometry relative="1" as="geometry"><mxPoint x="30" y="709.6600000000001" as="sourcePoint"/><mxPoint x="190" y="640" as="targetPoint"/><Array as="points"><mxPoint x="110" y="680"/><mxPoint x="160" y="680"/><mxPoint x="160" y="640"/></Array></mxGeometry></mxCell><mxCell id="KLTFEX1qhUFmZQi5NeGx-8" value="composed of&lt;br&gt;facilities" style="edgeLabel;html=1;align=center;verticalAlign=middle;resizable=0;points=[];fontSize=9;" parent="2F5MSPOgXOu8C7vcqL_C-72" connectable="0" vertex="1"><mxGeometry x="0.0468" y="-2" relative="1" as="geometry"><mxPoint y="5" as="offset"/></mxGeometry></mxCell><mxCell id="35" value="?" style="edgeLabel;html=1;align=center;verticalAlign=middle;resizable=0;points=[];labelBackgroundColor=none;fontColor=#FF0F17;" parent="2F5MSPOgXOu8C7vcqL_C-72" vertex="1" connectable="0"><mxGeometry x="-0.8997" y="-1" relative="1" as="geometry"><mxPoint x="11" y="5" as="offset"/></mxGeometry></mxCell><mxCell id="41" value="+" style="edgeLabel;html=1;align=center;verticalAlign=middle;resizable=0;points=[];labelBackgroundColor=none;" parent="2F5MSPOgXOu8C7vcqL_C-72" vertex="1" connectable="0"><mxGeometry x="0.9035" y="1" relative="1" as="geometry"><mxPoint x="-5" y="-9" as="offset"/></mxGeometry></mxCell><mxCell id="2F5MSPOgXOu8C7vcqL_C-73" value="" style="endArrow=block;html=1;edgeStyle=orthogonalEdgeStyle;rounded=0;entryX=0.5;entryY=0;entryDx=0;entryDy=0;fontFamily=Roboto;fontSource=https%3A%2F%2Ffonts.googleapis.com%2Fcss%3Ffamily%3DRoboto;startArrow=block;startFill=0;exitX=0.5;exitY=1;exitDx=0;exitDy=0;endFill=0;endSize=0;targetPerimeterSpacing=8;startSize=11;" parent="1" source="102" target="2F5MSPOgXOu8C7vcqL_C-44" edge="1"><mxGeometry relative="1" as="geometry"><mxPoint x="750" y="380" as="sourcePoint"/><mxPoint x="415" y="330" as="targetPoint"/><Array as="points"><mxPoint x="790" y="420"/><mxPoint x="110" y="420"/></Array></mxGeometry></mxCell><mxCell id="2F5MSPOgXOu8C7vcqL_C-80" value="" style="endArrow=block;endSize=16;endFill=0;html=1;rounded=0;fontFamily=Roboto;fontSource=https%3A%2F%2Ffonts.googleapis.com%2Fcss%3Ffamily%3DRoboto;" parent="1" edge="1"><mxGeometry width="160" relative="1" as="geometry"><mxPoint x="660" y="680" as="sourcePoint"/><mxPoint x="658.98" y="650" as="targetPoint"/><Array as="points"/></mxGeometry></mxCell><mxCell id="2F5MSPOgXOu8C7vcqL_C-81" value="" style="endArrow=none;html=1;edgeStyle=orthogonalEdgeStyle;rounded=0;fontFamily=Roboto;fontSource=https%3A%2F%2Ffonts.googleapis.com%2Fcss%3Ffamily%3DRoboto;" parent="1" edge="1"><mxGeometry relative="1" as="geometry"><mxPoint x="580" y="680" as="sourcePoint"/><mxPoint x="740" y="680" as="targetPoint"/></mxGeometry></mxCell><mxCell id="2F5MSPOgXOu8C7vcqL_C-82" value="" style="endArrow=none;html=1;edgeStyle=orthogonalEdgeStyle;rounded=0;exitX=0.5;exitY=0;exitDx=0;exitDy=0;fontFamily=Roboto;fontSource=https%3A%2F%2Ffonts.googleapis.com%2Fcss%3Ffamily%3DRoboto;" parent="1" edge="1"><mxGeometry relative="1" as="geometry"><mxPoint x="580" y="690" as="sourcePoint"/><mxPoint x="580" y="680" as="targetPoint"/></mxGeometry></mxCell><mxCell id="2F5MSPOgXOu8C7vcqL_C-86" value="" style="endArrow=none;html=1;edgeStyle=orthogonalEdgeStyle;rounded=0;entryX=0;entryY=0.5;entryDx=0;entryDy=0;fontFamily=Roboto;fontSource=https%3A%2F%2Ffonts.googleapis.com%2Fcss%3Ffamily%3DRoboto;startArrow=blockThin;startFill=1;exitX=1;exitY=0.5;exitDx=0;exitDy=0;" parent="1" source="2F5MSPOgXOu8C7vcqL_C-28" target="2F5MSPOgXOu8C7vcqL_C-9" edge="1"><mxGeometry relative="1" as="geometry"><mxPoint x="120" y="140" as="sourcePoint"/><mxPoint x="160" y="139.7" as="targetPoint"/><Array as="points"/></mxGeometry></mxCell><mxCell id="2F5MSPOgXOu8C7vcqL_C-90" value="!" style="edgeLabel;html=1;align=center;verticalAlign=middle;resizable=0;points=[];fontFamily=Roboto;fontSource=https%3A%2F%2Ffonts.googleapis.com%2Fcss%3Ffamily%3DRoboto;" parent="2F5MSPOgXOu8C7vcqL_C-86" vertex="1" connectable="0"><mxGeometry x="-0.8258" relative="1" as="geometry"><mxPoint x="1" y="-10" as="offset"/></mxGeometry></mxCell><mxCell id="2F5MSPOgXOu8C7vcqL_C-91" value="!" style="edgeLabel;html=1;align=center;verticalAlign=middle;resizable=0;points=[];fontFamily=Roboto;fontSource=https%3A%2F%2Ffonts.googleapis.com%2Fcss%3Ffamily%3DRoboto;" parent="2F5MSPOgXOu8C7vcqL_C-86" vertex="1" connectable="0"><mxGeometry x="0.7896" relative="1" as="geometry"><mxPoint y="-10" as="offset"/></mxGeometry></mxCell><mxCell id="2F5MSPOgXOu8C7vcqL_C-109" value="&lt;span style=&quot;font-size: 6px;&quot;&gt;described&lt;/span&gt;" style="edgeLabel;html=1;align=center;verticalAlign=top;resizable=0;points=[];fontFamily=Roboto;fontSource=https%3A%2F%2Ffonts.googleapis.com%2Fcss%3Ffamily%3DRoboto;labelBackgroundColor=none;" parent="2F5MSPOgXOu8C7vcqL_C-86" vertex="1" connectable="0"><mxGeometry x="-0.0714" y="-1" relative="1" as="geometry"><mxPoint x="1" y="-7" as="offset"/></mxGeometry></mxCell><mxCell id="2F5MSPOgXOu8C7vcqL_C-87" value="" style="endArrow=blockThin;html=1;edgeStyle=orthogonalEdgeStyle;rounded=0;entryX=0;entryY=0.5;entryDx=0;entryDy=0;fontFamily=Roboto;fontSource=https%3A%2F%2Ffonts.googleapis.com%2Fcss%3Ffamily%3DRoboto;exitX=1;exitY=0.5;exitDx=0;exitDy=0;endFill=1;" parent="1" source="2F5MSPOgXOu8C7vcqL_C-39" target="2F5MSPOgXOu8C7vcqL_C-40" edge="1"><mxGeometry relative="1" as="geometry"><mxPoint x="740" y="730.3000000000001" as="sourcePoint"/><mxPoint x="790" y="740" as="targetPoint"/><Array as="points"/></mxGeometry></mxCell><mxCell id="2F5MSPOgXOu8C7vcqL_C-106" value="*" style="edgeLabel;html=1;align=center;verticalAlign=middle;resizable=0;points=[];fontFamily=Roboto;fontSource=https%3A%2F%2Ffonts.googleapis.com%2Fcss%3Ffamily%3DRoboto;" parent="2F5MSPOgXOu8C7vcqL_C-87" vertex="1" connectable="0"><mxGeometry x="-0.6692" y="1" relative="1" as="geometry"><mxPoint x="-5" y="-8" as="offset"/></mxGeometry></mxCell><mxCell id="2F5MSPOgXOu8C7vcqL_C-107" value="!" style="edgeLabel;html=1;align=center;verticalAlign=middle;resizable=0;points=[];rotation=0;fontFamily=Roboto;fontSource=https%3A%2F%2Ffonts.googleapis.com%2Fcss%3Ffamily%3DRoboto;labelBackgroundColor=none;" parent="2F5MSPOgXOu8C7vcqL_C-87" vertex="1" connectable="0"><mxGeometry x="0.7195" relative="1" as="geometry"><mxPoint x="3" y="-7" as="offset"/></mxGeometry></mxCell><mxCell id="134" value="with weight" style="edgeLabel;html=1;align=center;verticalAlign=middle;resizable=0;points=[];" parent="2F5MSPOgXOu8C7vcqL_C-87" vertex="1" connectable="0"><mxGeometry x="-0.2028" y="-2" relative="1" as="geometry"><mxPoint as="offset"/></mxGeometry></mxCell><mxCell id="2F5MSPOgXOu8C7vcqL_C-92" value="" style="endArrow=block;html=1;edgeStyle=orthogonalEdgeStyle;rounded=0;entryX=0;entryY=0.5;entryDx=0;entryDy=0;fontFamily=Roboto;fontSource=https%3A%2F%2Ffonts.googleapis.com%2Fcss%3Ffamily%3DRoboto;endFill=1;" parent="1" target="2F5MSPOgXOu8C7vcqL_C-27" edge="1"><mxGeometry relative="1" as="geometry"><mxPoint x="160" y="219.89" as="sourcePoint"/><mxPoint x="200" y="219.89" as="targetPoint"/><Array as="points"><mxPoint x="200" y="220"/></Array></mxGeometry></mxCell><mxCell id="2F5MSPOgXOu8C7vcqL_C-93" value="*" style="edgeLabel;html=1;align=center;verticalAlign=middle;resizable=0;points=[];fontFamily=Roboto;fontSource=https%3A%2F%2Ffonts.googleapis.com%2Fcss%3Ffamily%3DRoboto;labelBackgroundColor=none;" parent="2F5MSPOgXOu8C7vcqL_C-92" vertex="1" connectable="0"><mxGeometry x="-0.8258" relative="1" as="geometry"><mxPoint x="-3" y="-8" as="offset"/></mxGeometry></mxCell><mxCell id="2F5MSPOgXOu8C7vcqL_C-94" value="*" style="edgeLabel;html=1;align=center;verticalAlign=middle;resizable=0;points=[];fontFamily=Roboto;fontSource=https%3A%2F%2Ffonts.googleapis.com%2Fcss%3Ffamily%3DRoboto;labelBackgroundColor=none;fontColor=#FF6666;" parent="2F5MSPOgXOu8C7vcqL_C-92" vertex="1" connectable="0"><mxGeometry x="0.7896" relative="1" as="geometry"><mxPoint x="3" y="-8" as="offset"/></mxGeometry></mxCell><mxCell id="2F5MSPOgXOu8C7vcqL_C-110" value="&lt;span style=&quot;font-size: 6px;&quot;&gt;includes&lt;/span&gt;" style="edgeLabel;html=1;align=center;verticalAlign=middle;resizable=0;points=[];fontFamily=Roboto;fontSource=https%3A%2F%2Ffonts.googleapis.com%2Fcss%3Ffamily%3DRoboto;" parent="2F5MSPOgXOu8C7vcqL_C-92" vertex="1" connectable="0"><mxGeometry x="-0.1456" y="-1" relative="1" as="geometry"><mxPoint x="6" y="-9" as="offset"/></mxGeometry></mxCell><mxCell id="57" style="edgeStyle=orthogonalEdgeStyle;rounded=0;html=1;exitX=0.5;exitY=1;exitDx=0;exitDy=0;strokeColor=#000000;" parent="1" source="KLTFEX1qhUFmZQi5NeGx-1" target="54" edge="1"><mxGeometry relative="1" as="geometry"/></mxCell><mxCell id="84" value="!" style="edgeLabel;html=1;align=center;verticalAlign=middle;resizable=0;points=[];labelBackgroundColor=none;" parent="57" vertex="1" connectable="0"><mxGeometry x="0.5333" relative="1" as="geometry"><mxPoint x="7" as="offset"/></mxGeometry></mxCell><mxCell id="85" value="*" style="edgeLabel;html=1;align=center;verticalAlign=middle;resizable=0;points=[];labelBackgroundColor=none;" parent="57" vertex="1" connectable="0"><mxGeometry x="-0.7733" y="-1" relative="1" as="geometry"><mxPoint x="8" y="4" as="offset"/></mxGeometry></mxCell><mxCell id="132" value="with cardio settings" style="edgeLabel;html=1;align=center;verticalAlign=middle;resizable=0;points=[];" parent="57" vertex="1" connectable="0"><mxGeometry x="-0.1284" relative="1" as="geometry"><mxPoint as="offset"/></mxGeometry></mxCell><mxCell id="KLTFEX1qhUFmZQi5NeGx-1" value="&lt;div&gt;Cardio Machine&lt;/div&gt;" style="html=1;whiteSpace=wrap;fontFamily=Roboto;fontSource=https%3A%2F%2Ffonts.googleapis.com%2Fcss%3Ffamily%3DRoboto;" parent="1" vertex="1"><mxGeometry x="460" y="790" width="80" height="40" as="geometry"/></mxCell><mxCell id="56" style="edgeStyle=orthogonalEdgeStyle;rounded=0;html=1;exitX=0.5;exitY=1;exitDx=0;exitDy=0;strokeColor=#000000;entryX=0.5;entryY=0;entryDx=0;entryDy=0;" parent="1" target="55" edge="1"><mxGeometry relative="1" as="geometry"><mxPoint x="661" y="830" as="sourcePoint"/><mxPoint x="661" y="860" as="targetPoint"/><Array as="points"><mxPoint x="661" y="880"/><mxPoint x="682" y="880"/></Array></mxGeometry></mxCell><mxCell id="77" value="!" style="edgeLabel;html=1;align=center;verticalAlign=middle;resizable=0;points=[];" parent="56" vertex="1" connectable="0"><mxGeometry x="0.3867" y="1" relative="1" as="geometry"><mxPoint x="7" as="offset"/></mxGeometry></mxCell><mxCell id="78" value="*" style="edgeLabel;html=1;align=center;verticalAlign=middle;resizable=0;points=[];labelBackgroundColor=none;" parent="56" vertex="1" connectable="0"><mxGeometry x="-0.8133" relative="1" as="geometry"><mxPoint x="5" y="4" as="offset"/></mxGeometry></mxCell><mxCell id="133" value="with weight machine settings" style="edgeLabel;html=1;align=center;verticalAlign=middle;resizable=0;points=[];" parent="56" vertex="1" connectable="0"><mxGeometry x="-0.2904" y="-1" relative="1" as="geometry"><mxPoint as="offset"/></mxGeometry></mxCell><mxCell id="128" style="edgeStyle=none;rounded=0;orthogonalLoop=1;jettySize=auto;html=1;exitX=1;exitY=0.5;exitDx=0;exitDy=0;entryX=0;entryY=0.5;entryDx=0;entryDy=0;endArrow=block;endFill=0;endSize=15;" parent="1" source="KLTFEX1qhUFmZQi5NeGx-2" target="126" edge="1"><mxGeometry relative="1" as="geometry"/></mxCell><mxCell id="KLTFEX1qhUFmZQi5NeGx-2" value="&lt;div&gt;Weight Machine&lt;/div&gt;" style="html=1;whiteSpace=wrap;fontFamily=Roboto;fontSource=https%3A%2F%2Ffonts.googleapis.com%2Fcss%3Ffamily%3DRoboto;" parent="1" vertex="1"><mxGeometry x="620" y="790" width="80" height="40" as="geometry"/></mxCell><mxCell id="KLTFEX1qhUFmZQi5NeGx-3" value="" style="endArrow=block;endSize=16;endFill=0;html=1;rounded=0;fontFamily=Roboto;fontSource=https%3A%2F%2Ffonts.googleapis.com%2Fcss%3Ffamily%3DRoboto;entryX=0.5;entryY=1;entryDx=0;entryDy=0;" parent="1" target="2F5MSPOgXOu8C7vcqL_C-38" edge="1"><mxGeometry width="160" relative="1" as="geometry"><mxPoint x="580" y="780" as="sourcePoint"/><mxPoint x="540" y="430" as="targetPoint"/><Array as="points"/></mxGeometry></mxCell><mxCell id="KLTFEX1qhUFmZQi5NeGx-4" value="" style="endArrow=none;html=1;edgeStyle=orthogonalEdgeStyle;rounded=0;fontFamily=Roboto;fontSource=https%3A%2F%2Ffonts.googleapis.com%2Fcss%3Ffamily%3DRoboto;" parent="1" edge="1"><mxGeometry relative="1" as="geometry"><mxPoint x="500" y="780" as="sourcePoint"/><mxPoint x="660" y="780" as="targetPoint"/></mxGeometry></mxCell><mxCell id="KLTFEX1qhUFmZQi5NeGx-5" value="" style="endArrow=none;html=1;edgeStyle=orthogonalEdgeStyle;rounded=0;exitX=0.5;exitY=0;exitDx=0;exitDy=0;fontFamily=Roboto;fontSource=https%3A%2F%2Ffonts.googleapis.com%2Fcss%3Ffamily%3DRoboto;" parent="1" edge="1"><mxGeometry relative="1" as="geometry"><mxPoint x="500" y="790" as="sourcePoint"/><mxPoint x="500" y="780" as="targetPoint"/></mxGeometry></mxCell><mxCell id="KLTFEX1qhUFmZQi5NeGx-6" value="" style="endArrow=none;html=1;edgeStyle=orthogonalEdgeStyle;rounded=0;fontFamily=Roboto;fontSource=https%3A%2F%2Ffonts.googleapis.com%2Fcss%3Ffamily%3DRoboto;" parent="1" edge="1"><mxGeometry relative="1" as="geometry"><mxPoint x="660" y="790" as="sourcePoint"/><mxPoint x="659.65" y="790" as="targetPoint"/><Array as="points"><mxPoint x="659.65" y="780"/><mxPoint x="659.65" y="780"/></Array></mxGeometry></mxCell><mxCell id="KLTFEX1qhUFmZQi5NeGx-12" value="&lt;div&gt;TODO: separare i requirement dalla effettive facility ed equipment&lt;/div&gt;&lt;div&gt;Legare le Gym ai requirement, e legare l'equipment alle sue istanze&lt;br&gt;&lt;/div&gt;" style="text;html=1;align=center;verticalAlign=middle;resizable=0;points=[];autosize=1;strokeColor=none;fillColor=none;" parent="1" vertex="1"><mxGeometry x="40" y="1090" width="380" height="40" as="geometry"/></mxCell><mxCell id="6" style="edgeStyle=orthogonalEdgeStyle;html=1;exitX=0.5;exitY=0;exitDx=0;exitDy=0;startArrow=none;startFill=0;endArrow=block;endFill=0;rounded=0;entryX=0.5;entryY=1;entryDx=0;entryDy=0;targetPerimeterSpacing=0;endSize=16;" parent="1" source="2" target="2F5MSPOgXOu8C7vcqL_C-34" edge="1"><mxGeometry relative="1" as="geometry"><mxPoint x="400" y="440" as="targetPoint"/></mxGeometry></mxCell><mxCell id="18" style="edgeStyle=orthogonalEdgeStyle;rounded=0;html=1;exitX=0.5;exitY=1;exitDx=0;exitDy=0;startArrow=none;startFill=0;endArrow=blockThin;endFill=1;targetPerimeterSpacing=0;strokeWidth=1;entryX=0.5;entryY=0;entryDx=0;entryDy=0;" parent="1" source="2" target="137" edge="1"><mxGeometry relative="1" as="geometry"><Array as="points"><mxPoint x="300" y="600"/><mxPoint x="230" y="600"/></Array></mxGeometry></mxCell><mxCell id="33" value="!" style="edgeLabel;html=1;align=center;verticalAlign=middle;resizable=0;points=[];fontColor=#FFFFFF;" parent="18" vertex="1" connectable="0"><mxGeometry x="0.9614" relative="1" as="geometry"><mxPoint x="-6" y="-8" as="offset"/></mxGeometry></mxCell><mxCell id="34" value="at place" style="edgeLabel;html=1;align=center;verticalAlign=middle;resizable=0;points=[];fontColor=#FFFFFF;" parent="18" vertex="1" connectable="0"><mxGeometry x="0.0826" y="-1" relative="1" as="geometry"><mxPoint x="4" as="offset"/></mxGeometry></mxCell><mxCell id="145" value="*" style="edgeLabel;html=1;align=center;verticalAlign=middle;resizable=0;points=[];" vertex="1" connectable="0" parent="18"><mxGeometry x="-0.8147" y="1" relative="1" as="geometry"><mxPoint x="4" as="offset"/></mxGeometry></mxCell><mxCell id="2" value="Requirement Facility" style="html=1;" parent="1" vertex="1"><mxGeometry x="230" y="480" width="140" height="50" as="geometry"/></mxCell><mxCell id="22" style="edgeStyle=orthogonalEdgeStyle;rounded=0;html=1;exitX=0.5;exitY=1;exitDx=0;exitDy=0;entryX=0.5;entryY=0;entryDx=0;entryDy=0;fontSize=9;startArrow=none;startFill=0;endArrow=blockThin;endFill=1;targetPerimeterSpacing=0;strokeWidth=1;" parent="1" source="3" target="KLTFEX1qhUFmZQi5NeGx-1" edge="1"><mxGeometry relative="1" as="geometry"/></mxCell><mxCell id="23" value="want" style="edgeLabel;html=1;align=center;verticalAlign=middle;resizable=0;points=[];fontSize=9;" parent="22" vertex="1" connectable="0"><mxGeometry x="-0.1354" y="1" relative="1" as="geometry"><mxPoint as="offset"/></mxGeometry></mxCell><mxCell id="38" value="+" style="edgeLabel;html=1;align=center;verticalAlign=middle;resizable=0;points=[];" parent="22" vertex="1" connectable="0"><mxGeometry x="-0.9597" y="-1" relative="1" as="geometry"><mxPoint x="7" as="offset"/></mxGeometry></mxCell><mxCell id="39" value="!" style="edgeLabel;html=1;align=center;verticalAlign=middle;resizable=0;points=[];labelBackgroundColor=none;" parent="22" vertex="1" connectable="0"><mxGeometry x="0.9473" y="-1" relative="1" as="geometry"><mxPoint x="-6" y="-5" as="offset"/></mxGeometry></mxCell><mxCell id="115" style="edgeStyle=orthogonalEdgeStyle;html=1;exitX=1;exitY=0.5;exitDx=0;exitDy=0;entryX=0.5;entryY=0;entryDx=0;entryDy=0;startArrow=none;startFill=0;endArrow=block;endFill=1;startSize=13;endSize=7;targetPerimeterSpacing=8;rounded=0;" parent="1" source="124" target="2F5MSPOgXOu8C7vcqL_C-40" edge="1"><mxGeometry relative="1" as="geometry"/></mxCell><mxCell id="116" value="?" style="edgeLabel;html=1;align=center;verticalAlign=middle;resizable=0;points=[];" parent="115" vertex="1" connectable="0"><mxGeometry x="0.8892" y="1" relative="1" as="geometry"><mxPoint as="offset"/></mxGeometry></mxCell><mxCell id="117" value="*" style="edgeLabel;html=1;align=center;verticalAlign=middle;resizable=0;points=[];" parent="115" vertex="1" connectable="0"><mxGeometry x="-0.9505" relative="1" as="geometry"><mxPoint y="-8" as="offset"/></mxGeometry></mxCell><mxCell id="149" value="matches" style="edgeLabel;html=1;align=center;verticalAlign=middle;resizable=0;points=[];fontColor=#FFFFFF;" vertex="1" connectable="0" parent="115"><mxGeometry x="-0.3737" y="1" relative="1" as="geometry"><mxPoint as="offset"/></mxGeometry></mxCell><mxCell id="3" value="Requirement Cardio Machine" style="html=1;" parent="1" vertex="1"><mxGeometry x="395" y="480" width="165" height="50" as="geometry"/></mxCell><mxCell id="8" style="edgeStyle=orthogonalEdgeStyle;html=1;exitX=0.5;exitY=0;exitDx=0;exitDy=0;startArrow=none;startFill=0;endArrow=block;endFill=0;rounded=0;entryX=0.5;entryY=1;entryDx=0;entryDy=0;targetPerimeterSpacing=0;endSize=16;" parent="1" source="3" edge="1"><mxGeometry relative="1" as="geometry"><mxPoint x="400" y="400" as="targetPoint"/><mxPoint x="300" y="480" as="sourcePoint"/></mxGeometry></mxCell><mxCell id="13" value="" style="endArrow=block;endSize=11;html=1;targetPerimeterSpacing=0;strokeWidth=1;exitX=1;exitY=0.5;exitDx=0;exitDy=0;endFill=0;ignoreEdge=0;entryX=0;entryY=0.5;entryDx=0;entryDy=0;" parent="1" source="2F5MSPOgXOu8C7vcqL_C-34" target="102" edge="1"><mxGeometry width="160" relative="1" as="geometry"><mxPoint x="590" y="550" as="sourcePoint"/><mxPoint x="550" y="380" as="targetPoint"/><Array as="points"/></mxGeometry></mxCell><mxCell id="75" style="edgeStyle=orthogonalEdgeStyle;rounded=0;html=1;exitX=0.5;exitY=1;exitDx=0;exitDy=0;strokeColor=#000000;fillColor=#FFFFFF;" parent="1" source="54" target="72" edge="1"><mxGeometry relative="1" as="geometry"><Array as="points"><mxPoint x="515" y="1020"/><mxPoint x="515" y="1065"/><mxPoint x="480" y="1065"/></Array></mxGeometry></mxCell><mxCell id="76" value="with angle" style="edgeLabel;html=1;align=center;verticalAlign=middle;resizable=0;points=[];" parent="75" vertex="1" connectable="0"><mxGeometry x="-0.1111" y="2" relative="1" as="geometry"><mxPoint as="offset"/></mxGeometry></mxCell><mxCell id="98" value="+" style="edgeLabel;html=1;align=center;verticalAlign=middle;resizable=0;points=[];" parent="75" vertex="1" connectable="0"><mxGeometry x="0.9152" y="2" relative="1" as="geometry"><mxPoint x="5" as="offset"/></mxGeometry></mxCell><mxCell id="99" value="*" style="edgeLabel;html=1;align=center;verticalAlign=middle;resizable=0;points=[];labelBackgroundColor=none;" parent="75" vertex="1" connectable="0"><mxGeometry x="-0.4497" y="1" relative="1" as="geometry"><mxPoint x="4" y="2" as="offset"/></mxGeometry></mxCell><mxCell id="80" style="edgeStyle=orthogonalEdgeStyle;rounded=0;html=1;exitX=0.5;exitY=1;exitDx=0;exitDy=0;strokeColor=#000000;" parent="1" source="54" target="79" edge="1"><mxGeometry relative="1" as="geometry"><Array as="points"><mxPoint x="595" y="1020"/><mxPoint x="595" y="1065"/><mxPoint x="635" y="1065"/></Array></mxGeometry></mxCell><mxCell id="82" value="with speed" style="edgeLabel;html=1;align=center;verticalAlign=middle;resizable=0;points=[];" parent="80" vertex="1" connectable="0"><mxGeometry x="0.2518" y="1" relative="1" as="geometry"><mxPoint as="offset"/></mxGeometry></mxCell><mxCell id="94" value="+" style="edgeLabel;html=1;align=center;verticalAlign=middle;resizable=0;points=[];labelBackgroundColor=none;" parent="80" vertex="1" connectable="0"><mxGeometry x="0.8894" y="-1" relative="1" as="geometry"><mxPoint x="8" as="offset"/></mxGeometry></mxCell><mxCell id="95" value="*" style="edgeLabel;html=1;align=center;verticalAlign=middle;resizable=0;points=[];" parent="80" vertex="1" connectable="0"><mxGeometry x="-0.4612" relative="1" as="geometry"><mxPoint x="6" as="offset"/></mxGeometry></mxCell><mxCell id="54" value="Cardio Machine Settings" style="whiteSpace=wrap;html=1;labelBackgroundColor=none;" parent="1" vertex="1"><mxGeometry x="502.5" y="970" width="105" height="60" as="geometry"/></mxCell><mxCell id="63" style="edgeStyle=orthogonalEdgeStyle;rounded=0;html=1;exitX=1;exitY=0.5;exitDx=0;exitDy=0;entryX=0.75;entryY=1;entryDx=0;entryDy=0;strokeColor=#000000;" parent="1" source="55" target="2F5MSPOgXOu8C7vcqL_C-40" edge="1"><mxGeometry relative="1" as="geometry"/></mxCell><mxCell id="65" value="max" style="edgeLabel;html=1;align=center;verticalAlign=middle;resizable=0;points=[];" parent="63" vertex="1" connectable="0"><mxGeometry x="-0.5806" y="1" relative="1" as="geometry"><mxPoint as="offset"/></mxGeometry></mxCell><mxCell id="67" value="*" style="edgeLabel;html=1;align=center;verticalAlign=middle;resizable=0;points=[];" parent="63" vertex="1" connectable="0"><mxGeometry x="-0.9564" relative="1" as="geometry"><mxPoint y="-8" as="offset"/></mxGeometry></mxCell><mxCell id="70" value="!" style="edgeLabel;html=1;align=center;verticalAlign=middle;resizable=0;points=[];labelBackgroundColor=none;" parent="63" vertex="1" connectable="0"><mxGeometry x="0.9625" y="1" relative="1" as="geometry"><mxPoint x="-8" as="offset"/></mxGeometry></mxCell><mxCell id="64" style="edgeStyle=orthogonalEdgeStyle;rounded=0;html=1;exitX=1;exitY=1;exitDx=0;exitDy=0;entryX=1;entryY=1;entryDx=0;entryDy=0;strokeColor=#000000;" parent="1" source="55" target="2F5MSPOgXOu8C7vcqL_C-40" edge="1"><mxGeometry relative="1" as="geometry"/></mxCell><mxCell id="66" value="min" style="edgeLabel;html=1;align=center;verticalAlign=middle;resizable=0;points=[];" parent="64" vertex="1" connectable="0"><mxGeometry x="-0.5923" y="1" relative="1" as="geometry"><mxPoint as="offset"/></mxGeometry></mxCell><mxCell id="68" value="*" style="edgeLabel;html=1;align=center;verticalAlign=middle;resizable=0;points=[];" parent="64" vertex="1" connectable="0"><mxGeometry x="-0.8671" relative="1" as="geometry"><mxPoint x="-10" y="-11" as="offset"/></mxGeometry></mxCell><mxCell id="71" value="!" style="edgeLabel;html=1;align=center;verticalAlign=middle;resizable=0;points=[];labelBackgroundColor=none;" parent="64" vertex="1" connectable="0"><mxGeometry x="0.9771" relative="1" as="geometry"><mxPoint x="8" as="offset"/></mxGeometry></mxCell><mxCell id="55" value="Weight Machine Settings" style="whiteSpace=wrap;html=1;labelBackgroundColor=none;" parent="1" vertex="1"><mxGeometry x="630" y="920" width="105" height="60" as="geometry"/></mxCell><mxCell id="72" value="Slope" style="whiteSpace=wrap;html=1;labelBackgroundColor=none;" parent="1" vertex="1"><mxGeometry x="440" y="1110" width="80" height="40" as="geometry"/></mxCell><mxCell id="79" value="Speed" style="whiteSpace=wrap;html=1;labelBackgroundColor=none;" parent="1" vertex="1"><mxGeometry x="590" y="1110" width="90" height="40" as="geometry"/></mxCell><mxCell id="89" value="int" style="text;html=1;align=center;verticalAlign=middle;resizable=0;points=[];autosize=1;strokeColor=none;" parent="1" vertex="1"><mxGeometry x="685" y="220" width="30" height="20" as="geometry"/></mxCell><mxCell id="90" value="int" style="text;html=1;align=center;verticalAlign=middle;resizable=0;points=[];autosize=1;strokeColor=none;" parent="1" vertex="1"><mxGeometry x="565" y="220" width="30" height="20" as="geometry"/></mxCell><mxCell id="93" value="int" style="text;html=1;align=center;verticalAlign=middle;resizable=0;points=[];autosize=1;strokeColor=none;" parent="1" vertex="1"><mxGeometry x="620" y="1150" width="30" height="20" as="geometry"/></mxCell><mxCell id="100" value="need to change + to * --&amp;gt; easier to implement scala" style="text;html=1;align=center;verticalAlign=middle;resizable=0;points=[];autosize=1;strokeColor=#b85450;fillColor=#f8cecc;" parent="1" vertex="1"><mxGeometry x="-40" y="280" width="290" height="20" as="geometry"/></mxCell><mxCell id="101" value="" style="endArrow=none;html=1;fontColor=#FF6666;exitX=0.703;exitY=0.07;exitDx=0;exitDy=0;exitPerimeter=0;" parent="1" source="100" edge="1"><mxGeometry width="50" height="50" relative="1" as="geometry"><mxPoint x="130" y="240" as="sourcePoint"/><mxPoint x="230" y="210" as="targetPoint"/></mxGeometry></mxCell><mxCell id="103" style="edgeStyle=none;html=1;exitX=1;exitY=0.5;exitDx=0;exitDy=0;" parent="1" source="102" target="104" edge="1"><mxGeometry relative="1" as="geometry"><mxPoint x="910" y="380.0952380952381" as="targetPoint"/><Array as="points"><mxPoint x="870" y="380"/></Array></mxGeometry></mxCell><mxCell id="113" value="!" style="edgeLabel;html=1;align=center;verticalAlign=middle;resizable=0;points=[];" parent="103" vertex="1" connectable="0"><mxGeometry x="0.8653" y="1" relative="1" as="geometry"><mxPoint y="-10" as="offset"/></mxGeometry></mxCell><mxCell id="114" value="*" style="edgeLabel;html=1;align=center;verticalAlign=middle;resizable=0;points=[];labelBackgroundColor=none;" parent="103" vertex="1" connectable="0"><mxGeometry x="-0.9259" relative="1" as="geometry"><mxPoint x="4" y="-5" as="offset"/></mxGeometry></mxCell><mxCell id="131" value="named" style="edgeLabel;html=1;align=center;verticalAlign=middle;resizable=0;points=[];" parent="103" vertex="1" connectable="0"><mxGeometry x="-0.0178" relative="1" as="geometry"><mxPoint as="offset"/></mxGeometry></mxCell><mxCell id="102" value="&lt;i&gt;&lt;u&gt;Named Object&lt;/u&gt;&lt;/i&gt;" style="html=1;whiteSpace=wrap;fontFamily=Roboto;fontSource=https%3A%2F%2Ffonts.googleapis.com%2Fcss%3Ffamily%3DRoboto;" parent="1" vertex="1"><mxGeometry x="750" y="360" width="80" height="40" as="geometry"/></mxCell><mxCell id="104" value="Name" style="html=1;whiteSpace=wrap;fontFamily=Roboto;fontSource=https%3A%2F%2Ffonts.googleapis.com%2Fcss%3Ffamily%3DRoboto;" parent="1" vertex="1"><mxGeometry x="920" y="360" width="80" height="40" as="geometry"/></mxCell><mxCell id="120" value="Facility does not need to know the fitness center" style="text;html=1;align=center;verticalAlign=middle;resizable=0;points=[];autosize=1;strokeColor=#b85450;fillColor=#f8cecc;" parent="1" vertex="1"><mxGeometry x="-50" y="840" width="280" height="30" as="geometry"/></mxCell><mxCell id="121" value="" style="endArrow=none;html=1;fontColor=#FF6666;" parent="1" source="120" edge="1"><mxGeometry width="50" height="50" relative="1" as="geometry"><mxPoint x="99.99999999999989" y="800.0000000000001" as="sourcePoint"/><mxPoint x="110" y="690" as="targetPoint"/></mxGeometry></mxCell><mxCell id="122" value="Fitness center could be have not facility" style="text;html=1;align=center;verticalAlign=middle;resizable=0;points=[];autosize=1;strokeColor=#b85450;fillColor=#f8cecc;" parent="1" vertex="1"><mxGeometry x="-25" y="885" width="230" height="30" as="geometry"/></mxCell><mxCell id="129" style="edgeStyle=orthogonalEdgeStyle;rounded=0;orthogonalLoop=1;jettySize=auto;html=1;exitX=0.5;exitY=1;exitDx=0;exitDy=0;entryX=0.75;entryY=0;entryDx=0;entryDy=0;endArrow=blockThin;endFill=1;endSize=15;startSize=3;" parent="1" source="124" target="126" edge="1"><mxGeometry relative="1" as="geometry"><Array as="points"><mxPoint x="665" y="590"/><mxPoint x="800" y="590"/></Array></mxGeometry></mxCell><mxCell id="130" value="+" style="edgeLabel;html=1;align=center;verticalAlign=middle;resizable=0;points=[];" parent="129" vertex="1" connectable="0"><mxGeometry x="-0.8693" y="1" relative="1" as="geometry"><mxPoint x="-2" y="-13" as="offset"/></mxGeometry></mxCell><mxCell id="JPtvz8hHEwOAzKOJtyuQ-130" value="*" style="edgeLabel;html=1;align=center;verticalAlign=middle;resizable=0;points=[];labelBackgroundColor=none;fontColor=#CC0000;" parent="129" vertex="1" connectable="0"><mxGeometry x="0.8189" y="-1" relative="1" as="geometry"><mxPoint x="8" y="-1" as="offset"/></mxGeometry></mxCell><mxCell id="148" value="weight equipments" style="edgeLabel;html=1;align=center;verticalAlign=middle;resizable=0;points=[];fontColor=#FFFFFF;" vertex="1" connectable="0" parent="129"><mxGeometry x="0.5525" y="1" relative="1" as="geometry"><mxPoint as="offset"/></mxGeometry></mxCell><mxCell id="124" value="Requirement Weight&lt;br&gt;Training" style="html=1;" parent="1" vertex="1"><mxGeometry x="595" y="480" width="140" height="50" as="geometry"/></mxCell><mxCell id="125" style="edgeStyle=orthogonalEdgeStyle;html=1;exitX=0.5;exitY=0;exitDx=0;exitDy=0;startArrow=none;startFill=0;endArrow=block;endFill=0;rounded=0;entryX=0.5;entryY=1;entryDx=0;entryDy=0;targetPerimeterSpacing=0;endSize=16;" parent="1" source="124" edge="1"><mxGeometry relative="1" as="geometry"><mxPoint x="400" y="400" as="targetPoint"/><mxPoint x="465" y="480" as="sourcePoint"/></mxGeometry></mxCell><mxCell id="126" value="&lt;i&gt;&lt;u&gt;Weight equipment&lt;/u&gt;&lt;/i&gt;" style="html=1;whiteSpace=wrap;fontFamily=Roboto;fontSource=https%3A%2F%2Ffonts.googleapis.com%2Fcss%3Ffamily%3DRoboto;" parent="1" vertex="1"><mxGeometry x="740" y="845" width="80" height="40" as="geometry"/></mxCell><mxCell id="137" value="&lt;i style=&quot;&quot;&gt;&lt;u&gt;Object Facility&lt;/u&gt;&lt;/i&gt;" style="whiteSpace=wrap;html=1;" vertex="1" parent="1"><mxGeometry x="190" y="620" width="80" height="40" as="geometry"/></mxCell></root></mxGraphModel></diagram></mxfile>